<?xml version="1.0" encoding="UTF-8"?>
<svg id="Capa_1" data-name="Capa 1" xmlns="http://www.w3.org/2000/svg" viewBox="0 0 195.65 213.34">
  <path d="M182.38,176.26c.91,1.79,2.01,3.3,2.48,5.31,2.9,12.5-11.17,24.33-22.74,17.76-3.69,4.95-10.79,6.32-16.2,3.41-9.08,5.72-19.96,8.07-30.55,9.24-15.63,1.72-36.6,2.45-51.72-1.74-5.94-1.65-9.27-3.67-14.27-7.07-8.16-5.55-16.85-12.87-19.37-22.83-5.31-20.98,4.37-56.15,13.27-75.69,1.6-3.52,3.47-6.85,5.45-10.17l-4.09-5.25-4.56,3.12c-.12,2.37-.04,3.96-1.04,6.15-3.3,7.26-10.55,6.85-17.12,4.67-4.8,2.2-15.25,8.3-19.96,4.04-5.35-4.85,1.62-15.24,4.72-19.74,6.42-9.32,14.38-17.87,22.22-25.99-.73-2.73-1.85-5.34-2.67-8.04-4.5-14.86-9.49-42.01,11.32-46.35,6.82-1.42,19.45,1,25.82,3.92,5.89,2.71,10.76,7.07,15.54,11.32l5.29-3.85c-1.13-5.68,5.52-11.31,10.91-8.52.41.21,1.18,1.02,1.3,1.03.25.02,3.83-2.05,4.52-2.38,3.33-1.58,8.96-4.59,12.51-3.08,5.9,2.5,1.36,11.93-.72,15.83-3.39,6.37-8.54,12.7-13.19,18.22-1.41,1.67-3.76,3.76-4.92,5.39-.2.28-.46.53-.42.92,3.94,9.3,8.52,18.36,10.12,28.46l11.63.95c-.88-2.73-2.11-5.42-2.94-8.21-4.41-14.8-2.88-31.21,4.49-44.78,16.33-30.04,49.83-28.96,68.22-1.56,7.52,11.21,10.46,24.32,9.83,37.65-.85,17.98-7.1,36.2-18.23,50.36,1.85,4.13,3.75,8.14,4.97,12.52,2.18,7.84,4.06,18.69,3.16,26.76-.41,3.63-1.5,7.33-2.52,10.83.68.83,1.58,1.31,2.3,2.15,3.89,4.6,2.92,12.76-2.87,15.22ZM108.77,12.74l-9.83,4.91c-.52,4.84-3.41,7.78-8.49,7.06-.59-.08-1.6-.7-1.9-.65-.97.16-3.86,3.06-5.2,3.31l7.07,10.78c6.88-7.7,14.32-15.77,18.34-25.41ZM91.44,13.27c-4.44.82-4.54,8.33.66,7.86,4.7-.42,5.18-8.94-.66-7.86ZM168.47,84.18c6.08-16.56,8.98-36.17-.2-52.19-3.31-5.78-11.4-14.96-18.93-12.61-6.42,2-11.76,11.08-13.83,17.09-2.68,7.76-2.98,16.2-1.32,24.21,6.44-1.57,15.08-.02,17.68,6.89.84,2.23.93,3.99.32,6.27,5.71.48,11.53,2.72,14.75,7.66.58.89.83,1.92,1.52,2.67ZM45.64,32.2c-.54.16-1.11,1.77-1.26,2.34-1.61,6.33,1.72,16.29,4.09,22.31.69,1.77,6.21,14.26,7.19,14.34,6.06-4.74,11.79-9.9,17.4-15.17l.19-.67c-5.18-7.95-11.53-17.25-20.42-21.32-1.56-.71-5.62-2.31-7.19-1.83ZM77.84,62.37l-17.71,15.42,3.44,4c1.97-2.87,4.67-5.12,7.87-6.51.79-.35,2.55-.64,3.03-1.04.53-.44.65-1.52,1-2.11,1.21-2.02,2.56-3.99,4.65-5.18l-2.3-4.56ZM8.07,100.97c.41.42,8.69-3.34,9.71-4.06-.98-4.24-.69-8.4,2.63-11.53,5.06-4.78,12.06-6.07,17.06-.5.19.03,3.26-1.72,2.63-2.38l-7.45-13.41c-5.79,6.05-11.43,12.3-16.52,18.96-1.01,1.32-8.93,12.03-8.06,12.92ZM27.92,85.67c-5.15.51-7.39,8.49-3.91,11.95,5.82,5.79,14.3-2.37,10.48-8.57-1.03-1.67-4.65-3.57-6.57-3.38ZM114.47,107.97c-.08-.08-1.65-.53-2.18-.82-3.99-2.23-3.34-5.27-5.07-8.36-1.42-2.53-5.58-2.2-7.05.41-4.07,7.24,5.37,14.46,12.25,13.21.65-.12,1.97-1.07,2.21-1.63.22-.51.17-2.49-.17-2.82ZM80.95,105.28c-1.4,1.99-2.55,3.91-4.44,5.51-6.71,5.69-18.81,6.31-21.54-3.62-.2-.73.08-1.79-.63-2.12-.39,1.72-1.49,3.38-1.68,5.15-.65,5.86,2.92,11.48,8.68,12.9,11.18,2.75,20.08-7.18,19.61-17.81ZM102.53,119.19c-9.23-1.45-17.46,8.14-19.54,16.3-3.3,12.93,6.99,28.77,18.9,33.61,6.54,2.66,13.36,2.1,20.13.72,2.51,1.65,4.61,4.29,7.84,4.52-.21,2.3.61,7.01,3.3,7.61,5.24,1.18,5.9-5.77,5.13-9.38,1.84-1.19,3.6-2.25,4.58-4.31,2.04-4.3-.52-8.34-4.34-10.38,1.59-2.71,1.73-6,1.43-9.1-.12-1.25-.65-1.95-1.57-2.74-1.41,2.86-2.65,5.53-4.68,8.02-3.83,4.71-9.46,7.99-15.58,8.52,2.13-6.35-2.33-12.46-9.17-10.97-3.52.77-4.85,3-5.46,6.29-.04.22.1.54-.35.36-1.74-.68-4.85-5.25-5.73-6.98-4.99-9.76-4.28-22.21,3.45-30.3.25-.26,2.06-1.37,1.68-1.8ZM117.4,126.62c-10.42.44-9.55,14.18-1.09,17.27,6.88,2.51,12.92-2.09,12.11-9.36-3.48,4.68-12.19,3.43-12.71-2.76-.18-2.14.93-3.35,1.68-5.15ZM156.68,157.37c-5.5.39-11.04,8-7.39,13.01,4.58,6.29,12.22,5.24,14.81-1.97,1.83-5.11-1.7-11.44-7.42-11.04ZM65.13,188.48c-.09-.37.06-.38.26-.58.58-.57,1.29-1,1.9-1.7,2.11-2.45,5.58-8.59,3.46-11.61-1.12-1.6-2.07-1.04-2.84.49-1.73,3.44-1.89,7.35-5.54,10.05-5.23,3.86-8.88-3.83-11.64-6.83-.64-.7-.99-1.09-2.03-1.11-3.28-.05-.46,4.22.4,5.61,1.67,2.69,4.06,5.46,7.15,6.4.26.28-1.15,1.47-1.4,1.84-.35.52-.52,1.22-.89,1.74-1.51,2.1-3.7,2.95-2.12,5.98s6.84,3.55,7.51-.36c.08-.5.27-2.15.26-2.62,0-.69-.58-1.23-.27-1.87.97-1.42,6.54.15,8,.62,2.83.9,5.35,2.45,8.01,3.74.53.26,1.96.63,2.24.87.26.22.47,1.59,1.07,2.29.68.79,2.35,2.11,3.36,2.4,3.94,1.13,7.19-1.71,5.69-5.69-.68-1.81-2.37-2.79-4.27-2.93-.79-.06-2.55.39-2.74.32-.17-.07-2.22-2-2.83-2.42-3.6-2.45-8.41-4.18-12.74-4.65ZM152.08,182.17c3.03-3.17-2.47-6.88-4.58-3.5-1.77,2.84,2.4,5.79,4.58,3.5ZM129.71,184.8c-.55-.53-.69-1.1-1.7-1.3-3.58-.72-7.29,4.11-5.44,7.36,3.44,6.06,11.24.83,8.54-4.46-.45-.87-.8-1.02-1.4-1.6Z"/>
</svg>